<svg width="54" height="70" viewBox="0 0 54 70" fill="none" xmlns="http://www.w3.org/2000/svg">
<path d="M52.7166 8.60755C52.7166 8.25392 52.6574 7.84135 52.6574 7.48772C52.5983 6.60364 51.9475 5.89638 51.0009 5.83744C47.1553 5.71957 43.3098 6.13213 39.4642 5.95532C39.4051 4.77655 39.3459 3.65672 39.2868 2.59583C39.4051 2.2422 39.3459 1.77069 39.0501 1.35813C37.5119 -0.704717 32.3056 0.179358 30.1166 0.238297C26.271 0.238297 22.4255 0.415112 18.58 0.356174C17.6925 0.356174 16.9234 1.12237 16.9234 2.00645C16.9234 3.06734 16.9234 4.12823 16.9234 5.18912C12.1904 4.95337 7.5166 4.77655 2.84278 4.71761C1.95535 4.71761 1.18624 5.48381 1.18624 6.36789C1.2454 26.7016 1.18624 47.1532 0.00298953 67.428C-0.0561728 68.3121 0.772099 69.0783 1.65953 69.0783C18.2841 69.2551 34.8496 70.1982 51.4742 69.9624C52.3616 69.9624 53.1307 69.1962 53.1307 68.3121C53.3082 48.4499 53.7815 28.4698 52.7166 8.60755ZM20.059 9.72738C25.3245 9.84525 30.6491 9.96313 35.9145 10.081C35.7962 10.4346 35.6187 10.7293 35.2637 10.9651C34.6721 11.3777 32.8972 11.083 32.2464 11.083C28.1642 11.1419 24.082 10.9061 20.059 10.3168C20.059 10.1399 20.059 9.90419 20.059 9.72738ZM20.1773 3.53885C22.6621 3.53885 25.2061 3.47991 27.6909 3.42097C29.6433 3.42097 31.5365 3.36203 33.4888 3.42097C34.1988 3.42097 35.0271 3.53885 35.737 3.47991C35.7962 3.47991 35.9145 3.47991 35.9737 3.47991C35.9737 4.24611 36.0328 5.01231 36.0328 5.7785C33.1339 5.66063 30.2941 5.54275 27.3951 5.48381C25.0286 5.42487 22.603 5.307 20.1773 5.24806C20.1773 4.65868 20.1773 4.12823 20.1773 3.53885ZM48.1611 31.6525C47.9836 42.3203 47.8653 52.9881 47.6878 63.656C47.6878 64.5401 46.9187 65.3063 46.0313 65.3063C41.5941 65.2473 37.0977 65.1884 32.6606 65.1294C26.3894 65.0116 20.1773 64.9526 13.9061 64.8348C11.7171 64.7758 6.74749 65.7778 5.91922 63.0666C5.20927 60.7091 5.74173 57.4675 5.80089 55.051C5.86006 52.163 6.03754 49.275 6.09671 46.387C6.51084 34.5404 6.57 22.8117 6.33336 10.9651C6.33336 10.081 7.10247 9.31481 7.9899 9.31481C10.8889 9.43268 13.847 9.49162 16.7459 9.6095C16.7459 10.3168 16.6868 11.024 16.6868 11.7313C16.6868 12.3796 17.2192 13.2047 17.87 13.3226C23.7271 14.2067 30.7674 15.3265 36.6836 14.1478C38.1035 13.8531 38.7543 13.3226 39.0501 11.9081C39.1684 11.3187 39.2276 10.7293 39.2868 10.1399C41.7716 10.1989 44.2564 10.2578 46.7412 10.2578C47.6286 10.2578 48.3977 11.024 48.3977 11.9081C48.3386 18.4503 48.2203 25.0514 48.1611 31.6525Z" fill="#F2F2F2"/>
<path d="M14.3796 26.8197C22.4848 26.9965 30.5309 26.8197 38.6362 26.4071C40.766 26.2893 40.766 22.9887 38.6362 23.1066C30.5309 23.5781 22.4848 23.696 14.3796 23.5192C12.2498 23.4602 12.2498 26.7608 14.3796 26.8197Z" fill="#F2F2F2"/>
<path d="M38.9911 37.6054C30.7676 37.9001 22.6032 37.6643 14.3796 36.9571C12.2498 36.7802 12.2498 40.0808 14.3796 40.2576C22.544 40.9649 30.7676 41.1417 38.9911 40.9059C41.121 40.847 41.121 37.5464 38.9911 37.6054Z" fill="#F2F2F2"/>
<path d="M37.2165 51.3969C30.3537 50.8075 23.4909 50.277 16.6872 49.7466C14.5574 49.5698 14.5574 52.8703 16.6872 53.0472C23.5501 53.5776 30.4129 54.108 37.2165 54.6974C39.3464 54.8742 39.3464 51.5737 37.2165 51.3969Z" fill="#F2F2F2"/>
</svg>
