<svg width="54" height="71" viewBox="0 0 54 71" fill="none" xmlns="http://www.w3.org/2000/svg">
<path d="M47.2542 8.32297C41.7849 1.78038 32.8353 -0.991909 24.5485 0.338788C7.53312 3.05563 -5.50467 23.0161 5.76528 38.43C7.03591 40.1488 8.52752 41.7013 10.2401 43.032C11.345 43.8636 11.4555 43.7528 11.0135 44.9726C10.5163 46.3033 9.57717 47.634 8.85899 48.9092C5.98626 54.2874 2.89255 59.5548 0.185548 64.9884C-0.0906763 65.5429 -0.0906763 66.43 0.406527 66.8736C2.00863 68.2043 3.88695 68.8142 5.71003 69.8122C6.37297 70.2003 7.42262 70.034 7.80934 69.2578C11.124 62.2162 14.273 55.23 18.3059 48.5765C23.4989 51.2934 31.3436 49.4637 36.2052 47.3567C42.8346 44.529 48.2486 39.3725 51.3423 32.83C55.1542 24.0695 53.3311 15.5864 47.2542 8.32297ZM29.852 43.9745C22.0625 44.8062 13.7205 41.1468 9.19046 34.7706C7.03591 31.721 5.82052 28.1171 6.0415 24.4022C6.26248 20.4101 8.58277 16.7507 10.9031 13.7012C17.201 5.38435 28.5814 0.505125 37.8625 6.6596C44.9891 11.9269 49.6297 21.0755 47.1437 30.0022C44.9891 37.5983 37.6416 43.1429 29.852 43.9745Z" fill="#F2F2F2"/>
<path d="M26.8131 6.21588C17.974 9.37629 3.22358 22.7387 11.8418 32.8298C13.1124 34.3268 15.3222 32.1645 13.9963 30.6674C10.4054 26.4536 13.9963 20.1882 16.9243 16.6951C19.7418 13.2575 23.4432 10.7624 27.6418 9.2654C29.4649 8.5446 28.6915 5.55054 26.8131 6.21588Z" fill="#F2F2F2"/>
<path d="M19.6315 35.7686C19.4658 35.7131 19.2448 35.6577 19.0791 35.6022C19.0238 35.6022 18.8029 35.4359 18.7476 35.4359C18.5819 35.325 18.4162 35.2696 18.2504 35.1587C18.1399 35.1032 18.0847 35.0478 17.9742 34.9923C18.0847 35.1032 18.0294 35.0478 17.9189 34.9369C17.3113 34.4379 16.3721 34.2715 15.7644 34.9369C15.2672 35.4913 15.1015 36.6003 15.7644 37.0993C16.7036 37.8201 17.6427 38.43 18.8029 38.7626C19.5763 38.9844 20.5155 38.4854 20.6812 37.7092C20.9022 36.822 20.4602 35.9904 19.6315 35.7686Z" fill="#F2F2F2"/>
</svg>
