<svg width="80" height="80" viewBox="0 0 80 80" fill="none" xmlns="http://www.w3.org/2000/svg">
<path d="M46.0869 1.64965C46.0869 1.3792 46.162 1.36745 46.0869 1.64965V1.64965Z" fill="#F2F2F2"/>
<path d="M73.5525 20.2636C74.2337 17.6532 74.8052 15.0252 75.2843 12.3619C75.3814 11.9439 75.32 11.5039 75.1123 11.1301C74.9047 10.7562 74.5662 10.4759 74.1644 10.3453C65.5631 6.76478 56.8984 3.36068 48.1874 0.0565319C47.914 -0.0185181 47.6261 -0.0188478 47.3525 0.0555743C47.079 0.129996 46.8296 0.27654 46.6294 0.480437C46.4292 0.684334 46.2853 0.938378 46.2122 1.21696C46.1391 1.49555 46.1394 1.78883 46.2131 2.06724C46.1619 1.93295 46.127 1.79276 46.1092 1.64981C46.0932 1.72256 46.07 1.79348 46.04 1.86147C45.9072 2.21422 45.786 2.57286 45.6532 2.92562C45.2433 4.0368 44.7988 5.13622 44.3543 6.23565C43.1363 9.29287 41.8836 12.3383 40.6367 15.3838C38.5643 20.4341 36.3072 25.4491 34.4715 30.5935C34.3659 31.0111 34.4237 31.4542 34.6326 31.8293C34.8415 32.2043 35.1853 32.4822 35.5914 32.6042C37.7504 33.3861 39.9209 34.1504 42.0741 34.9559C43.5058 35.485 45.0644 36.3787 46.6115 36.4433C50.1616 36.5903 49.7691 33.1216 52.032 31.4636C54.5258 30.6405 56.2807 32.6395 56.2576 35.0264C56.2576 36.2023 55.5822 37.3782 55.7669 38.4952C56.119 40.6529 59.2305 41.2526 60.9623 41.8288C66.3482 43.5925 67.5894 39.3124 68.9171 35.0558C73.1773 36.0494 78.1534 35.8613 79.66 30.7757C81.0859 25.8489 77.8243 21.8334 73.5525 20.2636ZM58.6475 37.5251C58.5667 37.5251 58.5897 37.5251 58.6475 37.5251V37.5251ZM76.4331 30.0937C74.9899 33.5272 70.9664 32.3161 68.2705 31.493C67.8552 31.3882 67.4161 31.4525 67.0464 31.672C66.6767 31.8915 66.4056 32.2491 66.2905 32.6689C65.7132 34.3562 65.0263 38.8656 63.2829 39.1361C62.0418 39.3183 60.4716 38.0072 59.294 37.7368L59.1093 37.6956C59.2017 37.3135 59.2767 36.9254 59.3344 36.5198C59.6346 34.3738 59.4787 31.493 57.8047 29.8938C56.8987 29.1045 55.8179 28.5514 54.6554 28.282C53.4929 28.0126 52.2835 28.0351 51.1315 28.3476C50.8859 28.3828 50.6523 28.4775 50.4503 28.6239C48.5799 29.9291 47.8699 33.2803 45.3241 32.7394C42.9227 32.2514 40.4289 31.0815 38.0506 30.1055C39.944 25.0082 42.178 20.0167 44.2389 14.9958C45.5031 11.9091 46.7731 8.82253 47.9911 5.72415C48.1758 5.24793 48.5395 4.5483 48.8513 3.81927C56.5674 6.76674 64.2489 9.81025 71.8958 12.9498C71.3936 15.6542 70.7817 18.3234 70.0427 20.9691C69.9324 21.3877 69.988 21.8336 70.1974 22.2108C70.4069 22.5881 70.7536 22.8663 71.1626 22.9857C74.3203 23.6912 78.0263 26.2957 76.4331 30.0937Z" fill="#F2F2F2"/>
<path d="M44.9898 64.3584C44.5568 62.9826 44.2624 61.1071 43.4946 59.8607C43.2756 59.4561 42.9618 59.1129 42.5811 58.8616C42.2004 58.6104 41.7646 58.4587 41.3126 58.4203C39.2402 58.3027 34.5701 61.5304 34.5874 57.1798C34.5874 53.0055 40.0484 55.9628 41.0413 52.688C41.4107 51.4592 40.6949 49.9483 40.337 48.8018C39.5635 46.3149 38.6052 43.8867 37.7797 41.4057C37.6625 40.9904 37.3901 40.6384 37.0211 40.4251C36.652 40.2119 36.2156 40.1545 35.8054 40.2651C33.3116 41.1117 30.8121 41.9289 28.301 42.6168C27.4408 39.1892 26.2978 36.2496 22.1127 35.9086C17.9275 35.5676 15.3759 39.101 15.0931 43.0107C15.0584 43.7021 15.0584 44.3948 15.0931 45.0861C15.3067 45.7857 15.197 45.9151 14.7583 45.4741C13.9847 46.0327 11.9758 46.0621 11.0291 46.2796C9.71872 46.5442 8.10815 46.5442 6.90743 47.1615C4.30396 48.4961 5.6894 52.7233 6.64766 55.7217C2.31816 56.5566 -1.53799 61.0777 0.61522 65.7165C1.58503 67.8154 4.07882 68.7561 6.23203 68.9148C7.23647 68.9912 8.81241 68.4445 9.37814 69.244C9.94386 70.0436 10.0478 72.8892 10.221 73.8475C10.5442 75.576 10.3249 78.304 11.9528 79.4446C14.1002 80.9438 18.4355 78.986 20.6926 78.5156C29.1553 76.7519 37.5719 74.747 46.0924 73.3948C46.5023 73.2768 46.8499 72.9987 47.0596 72.6211C47.2693 72.2435 47.3241 71.7968 47.2122 71.3782C46.4656 69.05 45.7248 66.7101 44.9898 64.3584ZM19.2148 75.529C18.0256 75.7759 16.8307 76.0052 15.6415 76.2698C13.8693 76.6637 13.9097 76.987 13.6788 75.2291C13.4248 73.2949 12.9687 71.3782 12.6282 69.4616C12.403 68.2034 12.2067 66.7453 11.1157 65.934C10.0247 65.1227 8.88168 65.5812 7.60015 65.64C5.9838 65.7165 3.55928 65.693 3.30528 63.5705C2.94737 60.8073 5.7933 58.4262 8.32174 58.8671C8.59448 58.9366 8.88025 58.9329 9.1512 58.8565C9.42215 58.7801 9.66905 58.6335 9.86785 58.4311C10.0666 58.2286 10.2106 57.9771 10.2856 57.7012C10.3606 57.4252 10.3642 57.1342 10.296 56.8564C9.90922 55.0926 9.46472 53.3641 9.07795 51.6062C8.72005 49.9894 8.34482 50.254 9.65522 49.8424C11.9354 49.1604 14.6948 49.3721 16.8422 48.2727C18.6548 47.3437 18.2046 45.8151 18.2623 44.0514C18.32 42.1876 18.5509 41.1646 20.0634 40.0593C21.2179 39.2186 22.2512 38.7365 23.5962 39.7066C24.9413 40.6766 25.1722 43.4164 25.5359 44.9685C25.6303 45.3144 25.8331 45.6193 26.1134 45.8369C26.3938 46.0545 26.7362 46.1728 27.0887 46.1738C27.6837 46.113 28.2739 46.0108 28.8551 45.868C31.0026 45.2801 33.1269 44.604 35.2397 43.8926C35.9729 46.0091 36.7637 48.1022 37.4276 50.2363C37.5026 50.5362 37.595 50.8243 37.6873 51.1241H37.6527C36.8263 51.2056 36.0167 51.4138 35.2513 51.7414C32.261 52.8526 30.9044 54.8869 31.4702 58.2439C32.0359 61.601 34.5239 63.5353 37.8605 62.8591C38.2761 62.7768 40.4351 61.6833 40.9893 61.748C40.666 61.8067 41.4857 63.9057 41.5954 64.2525L43.5697 70.5375C38.1838 71.4546 32.8498 72.607 27.5101 73.7593C24.7469 74.3668 21.9818 74.9528 19.2148 75.5172V75.529Z" fill="#F2F2F2"/>
</svg>
