<svg width="36" height="36" viewBox="0 0 36 36" fill="none" xmlns="http://www.w3.org/2000/svg">
<path fill-rule="evenodd" clip-rule="evenodd" d="M4.20507 12.5298C3.78485 16.4341 3.80358 20.9371 4.38832 24.8256C4.71187 26.9772 6.46787 28.6266 8.63547 28.8151L10.9008 29.012C15.6244 29.4226 20.3747 29.4226 25.0983 29.012L27.3636 28.8151C29.5312 28.6266 31.2872 26.9772 31.6108 24.8256C32.1955 20.9371 32.2143 16.4344 31.794 12.53C31.7397 12.0774 31.6786 11.6253 31.6108 11.174C31.2872 9.02246 29.5312 7.37299 27.3636 7.18457L25.0982 6.98765C20.3747 6.57703 15.6244 6.57703 10.9008 6.98765L8.63547 7.18457C6.46787 7.37299 4.71187 9.02246 4.38832 11.174C4.32047 11.6252 4.25939 12.0772 4.20507 12.5298ZM11.0957 9.22919C15.6896 8.82985 20.3095 8.82985 24.9034 9.22919L27.1687 9.42612C28.3002 9.52447 29.2169 10.3855 29.3858 11.5086C29.4033 11.6253 29.4204 11.742 29.437 11.8587L21.0955 16.4929C19.1701 17.5625 16.8289 17.5625 14.9035 16.4929L6.5621 11.8588C6.5787 11.742 6.59576 11.6253 6.6133 11.5086C6.7822 10.3855 7.69883 9.52447 8.83033 9.42612L11.0957 9.22919ZM29.7123 14.2796C30.0033 17.6813 29.8944 21.1086 29.3858 24.491C29.2169 25.6141 28.3002 26.4751 27.1688 26.5735L24.9034 26.7704C20.3095 27.1698 15.6896 27.1698 11.0957 26.7704L8.83033 26.5735C7.69883 26.4751 6.7822 25.6141 6.6133 24.491C6.10467 21.1086 5.99583 17.6813 6.28678 14.2797L13.8108 18.4597C16.4158 19.9069 19.5832 19.9069 22.1882 18.4597L29.7123 14.2796Z" fill="#F2F2F2"/>
</svg>
