<svg width="78" height="90" viewBox="0 0 78 90" fill="none" xmlns="http://www.w3.org/2000/svg">
<path d="M76.813 1.51085C76.6929 1.09301 76.4492 0.726923 76.1178 0.466361C75.7863 0.205798 75.3846 0.0645026 74.9716 0.0632403C68.2699 -0.399995 61.3561 1.72799 54.8393 4.92721L54.7366 4.88379C46.3236 2.25637 37.9243 5.91158 30.4971 10.0517C23.2724 14.1217 16.9561 19.781 11.9734 26.6486C11.2136 27.6764 11.2205 29.7682 12.8154 30.0143C15.8343 30.4775 18.8462 30.7815 21.8787 30.9263C17.8773 35.5885 14.1291 40.4869 10.6523 45.5978C10.4039 45.9131 10.2778 46.3162 10.2994 46.7259C10.321 47.1355 10.4887 47.5213 10.7687 47.8054C10.8414 47.9415 10.9262 48.07 11.0219 48.189C11.2684 48.4858 11.5217 48.7753 11.7612 49.0721C8.7835 50.7079 5.74415 52.5246 3.7316 55.4343C0.993444 59.3574 1.36993 64.1779 0.548488 68.7379C0.33628 69.8887 1.05505 71.4449 2.38306 71.2857L4.67626 71.0251C3.48523 76.0561 3.35901 81.303 4.30661 86.3915C4.39059 86.7309 4.55851 87.0405 4.7931 87.2885C5.02769 87.5366 5.3205 87.7141 5.64146 87.8029C7.20905 88.1938 9.42695 87.5641 11.4737 86.5869C11.4932 87.3911 11.7308 88.1725 12.1583 88.838C13.6985 91.1396 17.5045 89.3084 19.3528 88.4905C26.602 85.3058 33.1052 80.6662 37.6847 73.8697C38.0354 73.994 38.4113 74.016 38.7728 73.9332C39.1342 73.8504 39.4678 73.6659 39.7384 73.3992C43.3938 70.0045 47.0835 66.4217 50.6088 62.6362C51.339 65.5314 52.0692 68.4411 52.7994 71.3653C52.8919 71.7027 53.0655 72.009 53.3032 72.2544C53.5409 72.4997 53.8347 72.6758 54.1559 72.7655C54.4772 72.8551 54.8149 72.8553 55.1362 72.7659C55.4575 72.6766 55.7514 72.5007 55.9893 72.2556C61.9438 65.2452 66.8326 57.2997 70.481 48.703C73.712 40.9872 76.8746 32.2653 74.0338 23.9416C76.5803 16.5805 78.0862 8.88643 76.813 1.51085ZM30.2643 14.771C35.8433 11.3112 42.5176 7.84415 49.1371 8.00338C45.379 10.2399 41.8262 12.7009 38.6294 15.0532C33.8895 18.5937 29.4629 22.5813 25.4041 26.9671H25.274C22.4948 26.9671 19.7316 26.8175 16.9843 26.5183C20.7857 21.8711 25.2725 17.9042 30.2712 14.771H30.2643ZM23.8228 81.6289C22.1389 82.6277 20.4001 83.5614 18.6203 84.4083C17.5075 84.9825 16.3454 85.443 15.1497 85.7835C15.6494 85.5519 15.9712 83.6121 16.2313 83.185C17.4429 81.2235 14.7732 79.2186 13.233 80.7458C11.9324 82.0414 10.2416 82.5119 8.58498 83.0982C8.39331 83.1633 8.05104 83.2646 7.69508 83.366C7.12667 78.5906 7.62849 73.7408 9.15999 69.2084C9.23529 68.9092 9.24476 68.5957 9.18767 68.292C9.13058 67.9884 9.00845 67.7026 8.83066 67.4566C8.65287 67.2106 8.42415 67.0109 8.16203 66.873C7.89992 66.735 7.61138 66.6623 7.31858 66.6606L4.58042 66.979C4.84739 63.9897 4.97062 60.8556 6.42869 58.3585C8.16057 55.3982 11.3984 53.7768 14.2187 52.2424L14.383 52.1338C14.6979 52.4957 15.0265 52.8576 15.3482 53.2195C15.2556 53.2942 15.1707 53.3792 15.0949 53.4728C11.2752 58.4454 12.1857 66.6244 13.6506 72.4148C13.797 72.921 14.1213 73.3486 14.5567 73.6097C14.9922 73.8709 15.5057 73.9458 15.9917 73.819C16.4572 73.7394 16.909 73.6381 17.3608 73.5367C17.2148 74.4941 17.1415 75.4622 17.1417 76.4319C17.1455 76.7412 17.2159 77.0455 17.3476 77.3217C17.4794 77.5979 17.669 77.8387 17.902 78.0257C18.135 78.2128 18.4053 78.3411 18.6922 78.4011C18.9792 78.4611 19.2754 78.451 19.5582 78.3717C24.5069 76.9142 28.9116 73.8818 32.1742 69.6861L32.2495 69.5703C33.023 70.2144 33.8034 70.8586 34.5975 71.4883C31.7845 75.6906 28.1018 79.1588 23.8297 81.6289H23.8228ZM38.2461 69.3676C29.6287 62.6858 21.736 55.0176 14.7116 46.5026C21.8993 36.1811 30.6203 25.8597 40.5598 18.542C49.6916 11.8251 61.7394 3.9935 73.3287 4.01521C74.0132 10.2037 72.1992 16.6167 70.2414 22.3637C68.0958 28.6135 65.4389 34.6537 62.3008 40.4154C56.311 51.3738 47.2204 60.957 38.2461 69.3676ZM66.0863 49.101C63.238 55.352 59.6895 61.2183 55.517 66.5737C54.8918 64.1128 54.2734 61.6494 53.6619 59.1836C58.6401 53.6165 62.9447 47.4166 66.4764 40.7266C68.0714 37.5998 69.7417 34.2124 71.2682 30.7454C71.3504 37.0642 68.6259 43.4916 66.0863 49.101Z" fill="url(#paint0_linear_497_4940)"/>
<path d="M56.0032 20.6188C54.619 19.8797 53.0506 19.6176 51.5183 19.8695C49.986 20.1213 48.5668 20.8745 47.4601 22.023C46.7952 22.7776 46.2841 23.6687 45.9584 24.6408C45.6327 25.613 45.4994 26.6455 45.5668 27.6744C45.6342 28.7033 45.9009 29.7066 46.3502 30.622C46.7995 31.5374 47.422 32.3454 48.1789 32.9959C51.8686 35.9997 57.1601 33.8645 59.1658 29.8112C59.3197 29.5954 59.4314 29.3493 59.4944 29.0874C59.5744 28.8676 59.6184 28.6351 59.6244 28.3997C59.9259 26.8616 59.7334 25.2611 59.0775 23.8518C58.4215 22.4424 57.3397 21.3047 56.0032 20.6188ZM49.6575 28.682C49.4335 28.1829 49.3255 27.6344 49.3426 27.0822C49.3596 26.53 49.5013 25.9901 49.7557 25.5075C50.0101 25.0249 50.3699 24.6136 50.8051 24.3078C51.2403 24.002 51.7383 23.8107 52.2577 23.7496C52.777 23.6886 53.3026 23.7597 53.7907 23.957C54.2787 24.1543 54.7152 24.4721 55.0635 24.8839C55.4119 25.2957 55.6622 25.7895 55.7935 26.3243C55.9248 26.859 55.9333 27.4193 55.8184 27.9582C54.86 30.5567 50.876 31.3673 49.6575 28.682Z" fill="url(#paint1_linear_497_4940)"/>
<path d="M36.0082 37.6569C35.0877 37.8204 34.2101 38.1877 33.4332 38.7348C32.6562 39.2818 31.9973 39.9963 31.4996 40.8314C31.002 41.6664 30.6768 42.6033 30.5454 43.5805C30.4141 44.5577 30.4794 45.5532 30.7373 46.5018C30.7809 46.6613 30.8429 46.8144 30.9221 46.9578C31.5856 48.6224 32.8176 49.9617 34.3728 50.7093C35.928 51.4569 37.6924 51.5578 39.3149 50.9921C40.9373 50.4263 42.2988 49.2353 43.1283 47.6562C43.9578 46.0771 44.1946 44.2256 43.7915 42.4702C42.9084 38.967 39.3283 36.9765 36.0082 37.6569ZM38.7464 46.8782C37.0556 48.0073 35.2073 46.9867 34.3585 45.3148C33.3933 41.4062 39.65 40.0093 40.136 43.8092C40.1978 44.4007 40.1063 44.9988 39.8711 45.5395C39.6359 46.0801 39.2661 46.5429 38.8012 46.8782H38.7464Z" fill="url(#paint2_linear_497_4940)"/>
<defs>
<linearGradient id="paint0_linear_497_4940" x1="92.4999" y1="-21.5" x2="-6.56907" y2="90.0515" gradientUnits="userSpaceOnUse">
<stop offset="0.069246" stop-color="#2526A6"/>
<stop offset="1" stop-color="#8826A6"/>
</linearGradient>
<linearGradient id="paint1_linear_497_4940" x1="59.9094" y1="19.2885" x2="46.6137" y2="36.2779" gradientUnits="userSpaceOnUse">
<stop offset="0.17613" stop-color="#3E1FBA"/>
<stop offset="1" stop-color="#8113A3"/>
</linearGradient>
<linearGradient id="paint2_linear_497_4940" x1="44.1223" y1="37.0632" x2="31.5702" y2="53.1845" gradientUnits="userSpaceOnUse">
<stop offset="0.17613" stop-color="#3E1FBA"/>
<stop offset="1" stop-color="#8113A3"/>
</linearGradient>
</defs>
</svg>
