<svg width="91" height="78" viewBox="0 0 91 78" fill="none" xmlns="http://www.w3.org/2000/svg">
<path d="M84.6865 33.2303C85.0554 30.3914 85.1266 27.9364 82.0527 27.0107C81.9162 26.9494 81.7726 26.9079 81.6256 26.8873C75.2384 25.8587 68.8447 24.9261 62.5222 23.5135C62.2839 23.4509 62.0361 23.4399 61.7937 23.4811C61.5513 23.5224 61.3193 23.615 61.1114 23.7535C49.023 15.2025 35.5432 9.14062 23.5777 0.335863C23.3604 0.155449 23.1001 0.0425814 22.8259 0.009886C22.5516 -0.0228094 22.2742 0.0259624 22.0245 0.150723C21.7359 0.226654 21.476 0.393996 21.2795 0.630449C21.0829 0.866901 20.9591 1.16122 20.9244 1.47417C18.0511 17.8014 15.9803 34.1903 14.1424 50.6889C14.1145 50.9464 14.1419 51.2073 14.2224 51.452C14.303 51.6968 14.4346 51.9191 14.6076 52.1024C14.7805 52.2857 14.9903 52.4252 15.2213 52.5105C15.4523 52.5959 15.6985 52.6248 15.9415 52.5953C29.9131 50.8466 43.9041 49.3586 57.811 47.1094C58.0439 47.4538 58.3863 47.6973 58.7753 47.7952L64.0688 48.8306L60.9238 68.9979C60.1925 73.6746 59.1183 76.7329 64.3924 77.6792C65.9261 77.9467 68.2299 78.3101 69.7183 77.5215C71.5562 76.5546 71.4979 73.9969 71.7633 72.1317C72.7685 65.055 73.7694 57.9691 74.766 50.8741C77.4969 51.409 80.5449 52.2455 82.0009 49.0432C82.4985 47.8924 82.8761 46.6876 83.1269 45.45C83.2109 45.4568 83.2953 45.4568 83.3793 45.45C86.8609 44.8328 90.7825 42.8785 90.7372 38.5172C90.6984 34.7732 87.6245 33.5731 84.6865 33.2303ZM23.9595 5.19081C35.5691 13.3304 48.4276 19.2483 59.9531 27.525C59.2736 32.7708 58.4776 38.0029 57.811 43.2488C44.5901 45.45 31.2786 46.89 18.0123 48.5289C19.6754 34.012 21.5068 19.5774 23.9595 5.19081ZM69.4401 62.9566C69.123 65.1715 68.7929 67.3933 68.4952 69.6082C68.3529 70.6505 68.4952 72.4608 67.9775 73.3043C67.3822 74.3054 67.5828 74.1683 66.0038 74.0312C63.0334 73.7637 64.1271 71.7065 64.5089 69.231L65.5378 62.6549L67.5957 49.4615L71.2456 50.1472L69.4401 62.9566ZM80.2019 39.4361C79.8654 41.5344 79.7683 46.9791 77.6134 47.5346C76.798 47.7472 74.3324 46.9037 73.4976 46.746L69.3753 45.9505L61.3056 44.3939V44.3459C61.9915 38.7573 62.8522 33.196 63.577 27.621C69.2589 28.8005 74.9795 29.6782 80.7002 30.5696C82.0268 30.8851 80.4349 37.9618 80.2019 39.4361ZM87.0939 38.9218C86.8544 40.5333 85.2366 41.1573 83.7676 41.4796C83.9488 39.9436 84.0912 38.4075 84.2335 36.9744C85.5666 37.0292 87.3398 37.2692 87.0939 38.9218Z" fill="url(#paint0_linear_702_168)"/>
<path d="M12.8877 6.24396C11.3044 5.73085 9.76971 5.05897 8.30418 4.23727C6.28333 3.09742 4.47923 6.37364 6.51283 7.51349C8.24666 8.4983 10.0657 9.30065 11.9443 9.90924C14.1372 10.6191 15.0743 6.95381 12.8877 6.24396Z" fill="url(#paint1_linear_702_168)"/>
<path d="M9.50001 23.5098C7.70908 23.5108 5.92214 23.3525 4.16346 23.0369C1.82872 22.6139 0.828112 25.9548 3.17619 26.3779C5.26051 26.7715 7.38017 26.9798 9.50667 27C11.8881 26.9813 11.8948 23.516 9.50001 23.5098Z" fill="url(#paint2_linear_702_168)"/>
<path d="M8.67229 40.0024C6.43028 40.1136 4.15068 41.2746 2.07149 42.1367C-0.00769203 42.9987 0.887868 46.739 2.99837 45.87C3.96281 45.4668 4.93977 45.0774 5.91674 44.7229C6.79712 44.3052 7.72384 44.0199 8.67229 43.8747C10.9018 43.7635 10.9143 39.8911 8.67229 40.0024Z" fill="url(#paint3_linear_702_168)"/>
<defs>
<linearGradient id="paint0_linear_702_168" x1="14.1318" y1="4.29881" x2="89.7323" y2="86.1056" gradientUnits="userSpaceOnUse">
<stop offset="0.031826" stop-color="#C252E4"/>
<stop offset="0.440792" stop-color="#6044D2"/>
<stop offset="1" stop-color="#07178F"/>
</linearGradient>
<linearGradient id="paint1_linear_702_168" x1="5.62012" y1="4.33068" x2="10.9166" y2="12.6091" gradientUnits="userSpaceOnUse">
<stop offset="0.03115" stop-color="#C252E4"/>
<stop offset="0.640625" stop-color="#6044D2"/>
<stop offset="1" stop-color="#07178F"/>
</linearGradient>
<linearGradient id="paint2_linear_702_168" x1="1.83691" y1="23.2205" x2="4.43921" y2="29.9995" gradientUnits="userSpaceOnUse">
<stop offset="0.03115" stop-color="#C252E4"/>
<stop offset="0.640625" stop-color="#6044D2"/>
<stop offset="1" stop-color="#07178F"/>
</linearGradient>
<linearGradient id="paint3_linear_702_168" x1="0.891601" y1="40.3307" x2="5.93682" y2="49.0927" gradientUnits="userSpaceOnUse">
<stop offset="0.03115" stop-color="#C252E4"/>
<stop offset="0.640625" stop-color="#6044D2"/>
<stop offset="1" stop-color="#07178F"/>
</linearGradient>
</defs>
</svg>
