<svg width="89" height="81" viewBox="0 0 89 81" fill="none" xmlns="http://www.w3.org/2000/svg">
<path d="M6.26223 58.5935C6.56659 58.846 6.94525 58.9788 7.33278 58.9689C32.1529 59.1766 56.871 58.2986 81.6783 57.7021C82.1467 57.6934 82.5934 57.4934 82.9241 57.1444C83.2547 56.7954 83.4433 56.3248 83.4498 55.8321C82.9783 40.363 82.4239 24.9274 81.2577 9.49845C81.2449 9.00678 81.0534 8.53895 80.7228 8.19115C80.3921 7.84335 79.9473 7.642 79.4799 7.62848C55.622 6.19417 31.9999 7.46092 8.1803 8.96896C7.71302 8.97757 7.26717 9.17665 6.93671 9.52423C6.60625 9.87181 6.41699 10.3407 6.4088 10.8322C6.54899 26.2477 5.9245 41.6633 5.55491 57.0788C5.53214 57.3749 5.58586 57.6719 5.71036 57.9385C5.83487 58.2052 6.02554 58.4315 6.26223 58.5935ZM77.8358 11.2746C78.8681 25.5105 79.4034 39.7464 79.8431 54.0158C56.2656 54.6123 32.7519 55.3898 9.15526 55.2423C9.50573 41.0466 10.041 26.8107 9.96454 12.6151C32.6244 11.1673 55.125 10.0212 77.8358 11.2746Z" fill="url(#paint0_linear_702_167)"/>
<path d="M3.44015 5.99203C30.1159 3.70201 56.9026 3.02749 83.6575 3.97205C85.9142 4.05515 85.9142 0.494615 83.6575 0.411515C56.9025 -0.530922 30.1158 0.145744 3.44015 2.43789C1.20873 2.62966 1.16461 6.19019 3.44015 5.99203Z" fill="url(#paint1_linear_702_167)"/>
<path d="M86.4871 61.1862C72.3526 60.5682 58.2181 61.6631 44.09 61.9453C30.2231 62.214 16.3562 62.4827 2.50847 61.6228C0.227064 61.4818 0.233437 65.2234 2.50847 65.3645C14.5846 66.1169 26.6799 66.0027 38.7752 65.781L32.8932 77.8726C31.8545 80.0155 34.9134 81.9032 35.9585 79.7603L42.79 65.6534H44.0645C45.339 65.6534 46.6135 65.622 47.8881 65.5593L52.7249 79.7267C53.496 81.9703 56.9245 81.003 56.147 78.7325C54.6346 74.2989 53.1221 69.8697 51.6097 65.4451C63.2334 65.0421 74.8571 64.3905 86.4808 64.8943C88.7749 65.0219 88.7686 61.2802 86.4871 61.1862Z" fill="url(#paint2_linear_702_167)"/>
<path d="M24.7553 44.5229C29.3379 40.4319 33.7605 36.1774 38.0231 31.7594L43.4187 41.2965C44.0505 42.3999 45.3141 42.3483 46.1859 41.6579C51.4804 37.4679 56.6591 33.1339 61.7219 28.6557C61.7219 28.7331 61.7219 28.8106 61.7219 28.8816C61.7725 30.4689 61.8293 32.0498 61.8799 33.6307C61.9557 35.9408 65.4748 35.9472 65.399 33.6307L65.2094 28.0943C65.1589 26.5586 65.3358 24.8164 64.9251 23.3387C64.8458 23.037 64.6903 22.762 64.474 22.5411C64.2578 22.3203 63.9885 22.1614 63.6931 22.0804C62.1642 21.7707 60.7173 22.4353 59.2263 22.7257C57.4199 23.0512 55.5941 23.2517 53.7612 23.3258C51.512 23.4677 51.4931 27.0619 53.7612 26.9199C55.3218 26.8167 56.8823 26.707 58.4302 26.4876L58.8535 26.4166C54.4688 30.2882 49.9999 34.0437 45.4467 37.683L39.9438 27.9201C39.8049 27.6858 39.616 27.4865 39.3912 27.3371C39.1664 27.1877 38.9115 27.0921 38.6455 27.0574C38.3795 27.0226 38.1092 27.0497 37.8549 27.1365C37.6005 27.2233 37.3686 27.3676 37.1765 27.5587C32.4001 32.5703 27.4341 37.3797 22.2786 41.987C20.5601 43.5292 23.0557 46.0586 24.7553 44.5229Z" fill="url(#paint3_linear_702_167)"/>
<defs>
<linearGradient id="paint0_linear_702_167" x1="81.5498" y1="10.5" x2="-17.873" y2="66.5228" gradientUnits="userSpaceOnUse">
<stop offset="0.0180635" stop-color="#5A6AE3"/>
<stop offset="0.577665" stop-color="#8361E3"/>
<stop offset="1" stop-color="#C252E4"/>
</linearGradient>
<linearGradient id="paint1_linear_702_167" x1="43.55" y1="0" x2="43.55" y2="6" gradientUnits="userSpaceOnUse">
<stop offset="0.171875" stop-color="#5A6AE3"/>
<stop offset="0.875" stop-color="#8361E3"/>
<stop offset="1" stop-color="#C252E4"/>
</linearGradient>
<linearGradient id="paint2_linear_702_167" x1="77.2748" y1="56.5" x2="18.5793" y2="85.5325" gradientUnits="userSpaceOnUse">
<stop offset="0.171875" stop-color="#5A6AE3"/>
<stop offset="0.52593" stop-color="#8361E3"/>
<stop offset="1" stop-color="#C252E4"/>
</linearGradient>
<linearGradient id="paint3_linear_702_167" x1="43.5502" y1="22" x2="43.5502" y2="45" gradientUnits="userSpaceOnUse">
<stop offset="0.171875" stop-color="#5A6AE3"/>
<stop offset="0.875" stop-color="#8361E3"/>
<stop offset="1" stop-color="#C252E4"/>
</linearGradient>
</defs>
</svg>
