<svg width="85" height="85" viewBox="0 0 85 85" fill="none" xmlns="http://www.w3.org/2000/svg">
<path d="M82.6628 8.9475C80.1709 8.7475 77.6769 8.62972 75.1808 8.59417C75.3727 6.3311 75.4106 4.05634 75.2941 1.78751C75.1682 -0.585825 71.6632 -0.605825 71.789 1.78751C71.9246 4.50775 71.8424 7.23526 71.5436 9.94083L68.6616 12.7542C68.7119 12.0875 68.7748 11.4742 68.7811 10.9142L68.8818 5.87416C68.9322 3.48749 65.4271 3.48749 65.3831 5.87416L65.232 13.2075C65.1448 14.1847 65.128 15.1676 65.1817 16.1475L58.9582 22.2275C52.8983 16.1679 45.236 12.2137 36.9967 10.8942C23.3101 8.56082 12.0525 18.5208 5.68428 30.5875C-1.86696 44.9075 -1.35095 62.2142 10.3157 73.9208C20.7238 84.3475 39.6648 88.7008 52.2062 80.1208C65.5215 71.0142 72.2295 52.2542 67.4534 36.2075C66.078 32.1062 64.0097 28.3042 61.3495 24.9875L67.875 18.6142C69.1335 18.8008 70.5871 18.7208 71.6003 18.8208L78.3964 19.4875C80.6429 19.7208 80.624 16.0075 78.3964 15.7808L72.8777 15.2142C72.4183 15.1675 71.9275 15.1408 71.4241 15.1142L74.2872 12.3208C77.0875 12.3208 79.8752 12.4542 82.6628 12.6808C84.8967 12.8208 84.8904 9.13417 82.6628 8.9475ZM64.0742 37.1475C67.7869 49.6342 63.9546 63.5408 55.2644 72.6808C45.0451 83.4208 28.5079 82.7942 16.879 74.6808C4.24954 65.8475 1.04657 49.8475 7.18194 35.6142C11.7001 25.1342 21.2335 13.6742 33.0575 14.1342C41.7905 14.5562 50.0819 18.3229 56.3908 24.7342L52.288 28.7342C48.0012 24.1227 42.2729 21.3277 36.1787 20.8742C25.8461 20.1008 17.6656 25.7675 13.7012 35.7142C10.3723 44.0608 8.59779 56.1942 14.4815 63.7475C21.6488 72.9542 33.9888 78.5208 44.7997 73.7075C57.4794 68.0475 63.0485 52.2008 58.5429 38.7875C57.5488 36.1746 56.2212 33.7184 54.5974 31.4875L58.7758 27.4142C61.0703 30.2996 62.8603 33.5957 64.0616 37.1475H64.0742ZM45.6681 56.7275C40.6339 63.1542 29.9678 64.0208 24.8707 57.3942C24.833 57.3408 24.8078 57.2875 24.7763 57.2408C24.7106 57.1698 24.6497 57.0941 24.5938 57.0142C20.5665 50.8208 20.4343 41.0942 26.532 36.2675C31.5661 32.2675 39.0419 32.9342 43.8935 36.9342L34.3286 46.2675C32.6611 47.8875 35.1467 50.5075 36.8017 48.8942L46.3288 39.5608C48.0013 42.1076 48.8409 45.1644 48.7193 48.2642C48.5977 51.364 47.5216 54.3365 45.6555 56.7275H45.6681Z" fill="url(#paint0_linear_497_4926)"/>
<defs>
<linearGradient id="paint0_linear_497_4926" x1="0.663086" y1="4.66699" x2="78.6658" y2="80.4963" gradientUnits="userSpaceOnUse">
<stop offset="0.0609412" stop-color="#C252E4"/>
<stop offset="0.461184" stop-color="#6044D2"/>
<stop offset="1" stop-color="#07178F"/>
</linearGradient>
</defs>
</svg>
