<svg width="36" height="36" viewBox="0 0 36 36" fill="none" xmlns="http://www.w3.org/2000/svg">
<path fill-rule="evenodd" clip-rule="evenodd" d="M8.68118 21.0294C8.74684 21.0515 8.81312 21.0672 8.87932 21.0769C8.95153 21.2465 9.04482 21.466 9.15366 21.7227C9.41927 22.3492 9.77715 23.1964 10.1466 24.0803C10.8999 25.8828 11.6599 27.7409 11.8277 28.2728C12.0355 28.9302 12.2551 29.3773 12.4948 29.6824C12.6188 29.8402 12.7622 29.978 12.9299 30.0823C13.0144 30.1349 13.1036 30.178 13.1967 30.21C13.2008 30.2115 13.2049 30.2128 13.209 30.2142C13.689 30.3954 14.1267 30.3199 14.4007 30.2276C14.5473 30.1783 14.6659 30.1186 14.75 30.0703C14.7928 30.0456 14.8291 30.0226 14.8579 30.0032L14.8648 29.9986L19.1041 27.3549L24.0009 31.1091C24.0732 31.1645 24.1519 31.211 24.2354 31.2474C24.8237 31.5041 25.3933 31.5936 25.9292 31.5204C26.4642 31.4474 26.8889 31.2226 27.2051 30.9697C27.5147 30.7219 27.7246 30.4445 27.8553 30.2383C27.9221 30.1331 27.9722 30.04 28.0075 29.9686C28.0253 29.9328 28.0396 29.9019 28.0506 29.8771L28.0648 29.8444L28.0701 29.8316L28.0723 29.8261L28.0733 29.8236L28.0743 29.8212C28.1 29.7569 28.1197 29.6903 28.1332 29.6224L32.6036 7.08411C32.6179 7.01203 32.6251 6.93872 32.6251 6.86524C32.6251 6.20522 32.3764 5.57761 31.7916 5.19677C31.2918 4.87128 30.7351 4.85727 30.3832 4.88397C30.0037 4.91278 29.6531 5.00648 29.4178 5.08136C29.2954 5.12032 29.1928 5.15792 29.1188 5.1866C29.0816 5.20102 29.0511 5.21338 29.0284 5.22282L29.0113 5.23L3.94076 15.0648L3.93751 15.066C3.92153 15.0718 3.90102 15.0794 3.87664 15.0889C3.8281 15.1078 3.76305 15.1345 3.68708 15.1689C3.5389 15.2361 3.33103 15.341 3.11772 15.4871C2.77693 15.7205 1.9932 16.3596 2.12517 17.4146C2.23045 18.2562 2.80702 18.7731 3.15831 19.0216C3.3512 19.1581 3.53444 19.2557 3.6679 19.3192C3.72981 19.3487 3.85836 19.4009 3.91413 19.4236L3.92821 19.4293L8.68118 21.0294ZM29.8887 7.3018L29.8852 7.30332C29.8728 7.30874 29.8602 7.31394 29.8475 7.31891L4.74648 17.1657C4.73337 17.1708 4.72017 17.1757 4.70688 17.1804L4.69291 17.1857C4.67685 17.1919 4.64981 17.2029 4.61588 17.2183C4.59664 17.227 4.57656 17.2365 4.55609 17.2467C4.58421 17.2625 4.61114 17.2763 4.63506 17.2877C4.65802 17.2986 4.67554 17.3061 4.68513 17.31L9.39907 18.897C9.48535 18.9261 9.56579 18.9646 9.63962 19.011L25.2048 9.89922L25.2193 9.8906C25.2307 9.88391 25.2456 9.8753 25.2634 9.86521C25.2989 9.84518 25.3475 9.81851 25.4054 9.78905C25.5134 9.73407 25.6863 9.65245 25.881 9.59228C26.0165 9.55038 26.4163 9.43235 26.8484 9.57095C27.1151 9.6565 27.3913 9.84041 27.5709 10.152C27.6601 10.3068 27.7076 10.4622 27.7307 10.6046C27.7918 10.8288 27.7821 11.0502 27.7343 11.2414C27.6311 11.6531 27.3419 11.9743 27.0786 12.22C26.8531 12.4306 23.935 15.2444 21.0563 18.022C19.6207 19.4072 18.1998 20.7787 17.1377 21.8039L16.4401 22.4773L25.248 29.2301C25.45 29.3024 25.5694 29.2987 25.6247 29.2911C25.6905 29.2822 25.7444 29.2568 25.7994 29.2128C25.861 29.1635 25.9148 29.0971 25.955 29.0336L25.9567 29.031L30.2924 7.17153C30.228 7.18699 30.163 7.20541 30.1003 7.22537C30.0293 7.24798 29.9707 7.26951 29.9319 7.28456C29.9126 7.29201 29.8988 7.29766 29.8913 7.30078L29.8887 7.3018ZM17.1968 25.8926L15.4396 24.5454L15.0138 27.254L17.1968 25.8926ZM13.8276 21.8721L15.575 20.1851C16.6372 19.1598 18.0582 17.7882 19.494 16.4029L20.9527 14.9955L11.1727 20.7207L11.2251 20.8444C11.4917 21.4731 11.8512 22.3241 12.2226 23.2126C12.5002 23.8771 12.7906 24.5767 13.0551 25.2244L13.4797 22.5238C13.5206 22.2634 13.6478 22.038 13.8276 21.8721Z" fill="#F2F2F2"/>
</svg>
