<svg width="36" height="36" viewBox="0 0 36 36" fill="none" xmlns="http://www.w3.org/2000/svg">
<path fill-rule="evenodd" clip-rule="evenodd" d="M4.125 5.1C4.125 4.14731 4.89731 3.375 5.85 3.375H30.15C31.1027 3.375 31.875 4.14731 31.875 5.1V22.3074C31.875 22.7649 31.6933 23.2036 31.3698 23.5271L27.2864 27.6104C26.9629 27.9339 26.5242 28.1157 26.0667 28.1157H19.2579L14.0809 33.2927C13.1832 34.1904 11.6483 33.5546 11.6483 32.285V28.1157H5.85C4.89731 28.1157 4.125 27.3434 4.125 26.3907V5.1ZM6.375 5.625V25.8657H12.1733C13.126 25.8657 13.8983 26.638 13.8983 27.5907V30.2933L17.8207 26.3709C18.1442 26.0474 18.583 25.8657 19.0405 25.8657H25.8492L29.625 22.0899V5.625H6.375ZM15.7034 10.425C16.3247 10.425 16.8284 10.9287 16.8284 11.55V17.9581C16.8284 18.5794 16.3247 19.0831 15.7034 19.0831C15.0821 19.0831 14.5784 18.5794 14.5784 17.9581V11.55C14.5784 10.9287 15.0821 10.425 15.7034 10.425ZM23.2267 10.425C23.848 10.425 24.3517 10.9287 24.3517 11.55V17.9581C24.3517 18.5794 23.848 19.0831 23.2267 19.0831C22.6054 19.0831 22.1017 18.5794 22.1017 17.9581V11.55C22.1017 10.9287 22.6054 10.425 23.2267 10.425Z" fill="#F2F2F2"/>
</svg>
